<?xml version="1.0" standalone="no"?>
<!DOCTYPE svg PUBLIC "-//W3C//DTD SVG 20010904//EN"
 "http://www.w3.org/TR/2001/REC-SVG-20010904/DTD/svg10.dtd">
<svg version="1.0" xmlns="http://www.w3.org/2000/svg"
 width="383.000000pt" height="133.000000pt" viewBox="0 0 383.000000 133.000000"
 preserveAspectRatio="xMidYMid meet">

<g transform="translate(0.000000,133.000000) scale(0.100000,-0.100000)"
fill="#000000" stroke="none">
<path d="M402 940 c0 -14 2 -19 5 -12 2 6 2 18 0 25 -3 6 -5 1 -5 -13z"/>
<path d="M478 933 c7 -3 16 -2 19 1 4 3 -2 6 -13 5 -11 0 -14 -3 -6 -6z"/>
<path d="M3408 904 c-26 -8 -60 -28 -77 -45 -81 -81 -81 -292 1 -376 81 -84
272 -83 347 2 81 93 78 290 -7 378 -50 52 -168 71 -264 41z m185 -94 c66 -52
60 -239 -8 -284 -33 -22 -133 -21 -164 0 -33 24 -51 74 -51 144 0 70 18 120
51 144 35 24 139 22 172 -4z"/>
<path d="M268 903 c6 -2 9 -10 6 -15 -4 -7 -2 -8 5 -4 13 9 5 26 -12 25 -9 0
-8 -2 1 -6z"/>
<path d="M554 901 c4 -5 0 -12 -6 -14 -8 -3 -6 -6 5 -6 9 -1 17 6 17 14 0 8
-5 15 -11 15 -5 0 -8 -4 -5 -9z"/>
<path d="M870 671 l0 -241 145 0 c200 0 245 20 261 117 6 39 -16 113 -33 113
-4 0 -14 4 -22 9 -11 7 -10 13 7 32 46 49 35 141 -21 183 -25 19 -44 21 -183
24 l-154 4 0 -241z m264 158 c22 -11 36 -35 36 -66 0 -7 -9 -22 -20 -33 -17
-17 -33 -20 -100 -20 l-80 0 0 65 0 65 70 0 c38 0 80 -5 94 -11z m26 -209 c23
-23 26 -68 6 -96 -12 -16 -29 -20 -105 -22 l-91 -4 0 71 0 71 85 0 c72 0 88
-3 105 -20z"/>
<path d="M1476 902 c-3 -5 -45 -113 -94 -240 l-90 -232 52 0 51 0 21 58 20 57
93 0 93 0 22 -55 22 -55 51 -3 51 -3 -92 240 -91 241 -52 0 c-28 0 -54 -4 -57
-8z m92 -175 c17 -45 32 -86 32 -90 0 -4 -31 -7 -70 -7 -38 0 -70 3 -70 7 0
13 65 173 70 173 3 0 20 -37 38 -83z"/>
<path d="M1830 670 l0 -240 50 0 50 0 2 160 3 159 114 -159 115 -160 43 0 43
0 0 240 0 240 -50 0 -50 0 -2 -160 -3 -159 -114 159 -115 160 -43 0 -43 0 0
-240z"/>
<path d="M2340 671 l0 -241 50 0 50 0 0 75 0 75 74 0 c40 0 88 5 107 11 96 32
135 136 90 236 -31 66 -61 77 -228 81 l-143 4 0 -241z m267 137 c32 -30 32
-90 -2 -123 -21 -22 -33 -25 -95 -25 l-70 0 0 85 0 85 72 0 c60 0 76 -4 95
-22z"/>
<path d="M2780 670 l0 -240 50 0 50 0 0 100 0 100 110 0 110 0 0 -100 0 -100
50 0 50 0 0 240 0 240 -50 0 -50 0 0 -100 0 -100 -110 0 -110 0 0 100 0 100
-50 0 -50 0 0 -240z"/>
<path d="M221 876 c-9 -10 -8 -15 3 -19 8 -3 17 1 20 8 7 20 -9 28 -23 11z"/>
<path d="M584 879 c-3 -6 -2 -15 3 -20 5 -5 9 -1 9 11 0 23 -2 24 -12 9z"/>
<path d="M311 854 c-122 -61 -156 -222 -69 -328 101 -123 292 -104 363 37 44
89 30 183 -38 251 -71 70 -165 85 -256 40z m139 -97 c0 -14 -4 -29 -10 -32
-17 -10 -11 -25 10 -25 17 0 19 5 14 25 -3 14 -2 25 2 26 66 6 101 12 111 21
10 8 13 7 13 -3 0 -16 -53 -69 -69 -69 -8 0 -7 -6 1 -19 10 -17 9 -23 -6 -40
-11 -12 -27 -21 -38 -21 -11 0 -18 -7 -18 -18 0 -10 -3 -22 -7 -26 -8 -7 -9
-12 -11 -54 -1 -13 -6 -20 -12 -17 -6 4 -10 -5 -10 -19 0 -14 -4 -26 -10 -26
-10 0 -14 14 -11 39 2 7 -2 10 -8 6 -7 -4 -11 4 -11 21 0 47 -22 92 -47 99
-23 5 -41 45 -28 64 3 6 3 11 -2 11 -4 0 -23 14 -40 31 -37 33 -44 56 -14 40
10 -6 36 -11 57 -12 48 -3 66 -16 59 -40 -4 -13 -1 -19 9 -19 18 0 20 9 7 43
-7 18 -5 32 10 56 l20 33 19 -25 c11 -14 20 -37 20 -50z"/>
<path d="M326 672 c-7 -12 -1 -17 37 -26 16 -4 27 -2 27 4 0 5 -8 10 -18 10
-10 0 -23 5 -29 11 -7 7 -13 7 -17 1z"/>
<path d="M453 663 c-24 -5 -32 -23 -10 -23 24 0 57 12 57 21 0 9 -8 10 -47 2z"/>
<path d="M615 849 c-4 -6 -5 -12 -2 -15 2 -3 7 2 10 11 7 17 1 20 -8 4z"/>
<path d="M625 820 c-7 -11 22 -26 32 -16 4 3 -1 6 -11 6 -9 0 -14 5 -11 10 3
6 4 10 1 10 -3 0 -8 -5 -11 -10z"/>
<path d="M160 812 c0 -4 9 -8 20 -9 11 -1 18 2 15 8 -7 11 -35 12 -35 1z"/>
<path d="M671 774 c0 -11 3 -14 6 -6 3 7 2 16 -1 19 -3 4 -6 -2 -5 -13z"/>
<path d="M681 664 c0 -11 3 -14 6 -6 3 7 2 16 -1 19 -3 4 -6 -2 -5 -13z"/>
</g>
</svg>
